ffmpeg started on 2025-06-07 at 17:50:51
Report written to "D:\Convert\FFMetrics\reports\ssim_report-6.txt"
Log level: 32
Command line:
ffmpeg -hide_banner -nostdin -i "G:\\\xc0\xed\xe8\xec\xe5\\\xce\xed\xe3\xee\xe8\xed\xe3\xe8\\!_36_\xce\xf1\xe5\xed\xfc_2024\\DreamCast\\\xdd\xe9, \xd2\xee\xec\xe1\xee!\\\xd2\xc2-2\\[DC] Tonbo 2 - 08_Telegram_HEVC.mkv" -i "G:\\\xc0\xed\xe8\xec\xe5\\\xce\xed\xe3\xee\xe8\xed\xe3\xe8\\!_36_\xce\xf1\xe5\xed\xfc_2024\\DreamCast\\\xdd\xe9, \xd2\xee\xec\xe1\xee!\\\xd2\xc2-2\\[DC] Tonbo 2 - 08_Telegram.mp4" -lavfi "[0:v]settb=AVTB,setpts=PTS-STARTPTS,format=pix_fmts=yuv420p10,fps=24000/1001,scale=1920:1080:flags=bicubic[main];[1:v]settb=AVTB,setpts=PTS-STARTPTS,format=pix_fmts=yuv420p,fps=24000/1001,scale=1920:1080:flags=bicubic[ref];[main][ref]ssim=eof_action=endall:stats_file='D\\:/Convert/FFMetrics/logs/ssim_logfile-6.txt'" -f null -
Input #0, matroska,webm, from 'G:\Аниме\Онгоинги\!_36_Осень_2024\DreamCast\Эй, Томбо!\ТВ-2\[DC] Tonbo 2 - 08_Telegram_HEVC.mkv':
  Metadata:
    COMPATIBLE_BRANDS: isomiso2avc1mp41
    MAJOR_BRAND     : isom
    MINOR_VERSION   : 512
    ENCODER         : Lavf61.7.100
  Duration: 00:24:20.82, start: -0.021000, bitrate: 1514 kb/s
  Stream #0:0: Video: hevc (Main 10), yuv420p10le(tv, bt709, progressive), 1920x1080 [SAR 1:1 DAR 16:9], 23.98 fps, 23.98 tbr, 1k tbn (default)
      Metadata:
        HANDLER_NAME    : VideoHandler
        VENDOR_ID       : [0][0][0][0]
        ENCODER         : Lavc61.19.100 libx265
        BPS             : 1318914
        DURATION        : 00:24:19.708708333
        NUMBER_OF_FRAMES: 34998
        NUMBER_OF_BYTES : 240653833
        _STATISTICS_WRITING_APP: mkvpropedit v66.0.0 ('Josie') 64-bit
        _STATISTICS_WRITING_DATE_UTC: 2025-06-06 08:12:33
        _STATISTICS_TAGS: BPS DURATION NUMBER_OF_FRAMES NUMBER_OF_BYTES
  Stream #0:1: Audio: aac (LC), 48000 Hz, stereo, fltp (default)
      Metadata:
        HANDLER_NAME    : SoundHandler
        VENDOR_ID       : [0][0][0][0]
        ENCODER         : Lavc61.19.100 aac
        BPS             : 192945
        DURATION        : 00:24:20.821000000
        NUMBER_OF_FRAMES: 68477
        NUMBER_OF_BYTES : 35232406
        _STATISTICS_WRITING_APP: mkvpropedit v66.0.0 ('Josie') 64-bit
        _STATISTICS_WRITING_DATE_UTC: 2025-06-06 08:12:33
        _STATISTICS_TAGS: BPS DURATION NUMBER_OF_FRAMES NUMBER_OF_BYTES
Input #1, mov,mp4,m4a,3gp,3g2,mj2, from 'G:\Аниме\Онгоинги\!_36_Осень_2024\DreamCast\Эй, Томбо!\ТВ-2\[DC] Tonbo 2 - 08_Telegram.mp4':
  Metadata:
    major_brand     : isom
    minor_version   : 512
    compatible_brands: isomiso2avc1mp41
    encoder         : Lavf61.1.100
  Duration: 00:24:20.80, start: 0.000000, bitrate: 3700 kb/s
  Stream #1:0[0x1](und): Video: h264 (High) (avc1 / 0x31637661), yuv420p(tv, bt709, progressive), 1920x1080 [SAR 1:1 DAR 16:9], 3555 kb/s, 23.98 fps, 23.98 tbr, 24k tbn (default)
      Metadata:
        handler_name    : VideoHandler
        vendor_id       : [0][0][0][0]
        encoder         : Lavc61.3.100 h264_qsv
  Stream #1:1[0x2](und): Audio: aac (HE-AACv2) (mp4a / 0x6134706D), 48000 Hz, stereo, fltp, 144 kb/s (default)
      Metadata:
        handler_name    : SoundHandler
        vendor_id       : [0][0][0][0]
Stream mapping:
  Stream #0:0 (hevc) -> settb:default
  Stream #1:0 (h264) -> settb:default
  ssim:default -> Stream #0:0 (wrapped_avframe)
  Stream #0:1 -> #0:1 (aac (native) -> pcm_s16le (native))
Output #0, null, to 'pipe:':
  Metadata:
    COMPATIBLE_BRANDS: isomiso2avc1mp41
    MAJOR_BRAND     : isom
    MINOR_VERSION   : 512
    encoder         : Lavf61.7.100
  Stream #0:0: Video: wrapped_avframe, yuv420p10le(tv, bt709, progressive), 1920x1080 [SAR 1:1 DAR 16:9], q=2-31, 200 kb/s, 23.98 fps, 23.98 tbn
      Metadata:
        encoder         : Lavc61.19.100 wrapped_avframe
  Stream #0:1: Audio: pcm_s16le, 48000 Hz, stereo, s16, 1536 kb/s (default)
      Metadata:
        HANDLER_NAME    : SoundHandler
        VENDOR_ID       : [0][0][0][0]
        _STATISTICS_TAGS: BPS DURATION NUMBER_OF_FRAMES NUMBER_OF_BYTES
        BPS             : 192945
        DURATION        : 00:24:20.821000000
        NUMBER_OF_FRAMES: 68477
        NUMBER_OF_BYTES : 35232406
        _STATISTICS_WRITING_APP: mkvpropedit v66.0.0 ('Josie') 64-bit
        _STATISTICS_WRITING_DATE_UTC: 2025-06-06 08:12:33
        encoder         : Lavc61.19.100 pcm_s16le
frame=  173 fps=0.0 q=-0.0 size=N/A time=00:00:07.21 bitrate=N/A speed=14.2x    frame=  446 fps=432 q=-0.0 size=N/A time=00:00:18.60 bitrate=N/A speed=  18x    frame=  728 fps=472 q=-0.0 size=N/A time=00:00:30.36 bitrate=N/A speed=19.7x    frame=  985 fps=480 q=-0.0 size=N/A time=00:00:41.08 bitrate=N/A speed=  20x    frame= 1196 fps=464 q=-0.0 size=N/A time=00:00:49.88 bitrate=N/A speed=19.3x    frame= 1405 fps=455 q=-0.0 size=N/A time=00:00:58.60 bitrate=N/A speed=  19x    frame= 1582 fps=438 q=-0.0 size=N/A time=00:01:05.98 bitrate=N/A speed=18.3x    frame= 1809 fps=439 q=-0.0 size=N/A time=00:01:15.45 bitrate=N/A speed=18.3x    frame= 2043 fps=440 q=-0.0 size=N/A time=00:01:25.21 bitrate=N/A speed=18.4x    frame= 2282 fps=443 q=-0.0 size=N/A time=00:01:35.17 bitrate=N/A speed=18.5x    frame= 2496 fps=441 q=-0.0 size=N/A time=00:01:44.10 bitrate=N/A speed=18.4x    frame= 2645 fps=428 q=-0.0 size=N/A time=00:01:50.31 bitrate=N/A speed=17.8x    frame= 2808 fps=419 q=-0.0 size=N/A time=00:01:57.11 bitrate=N/A speed=17.5x    frame= 3011 fps=417 q=-0.0 size=N/A time=00:02:05.58 bitrate=N/A speed=17.4x    frame= 3171 fps=410 q=-0.0 size=N/A time=00:02:12.25 bitrate=N/A speed=17.1x    frame= 3396 fps=412 q=-0.0 size=N/A time=00:02:21.64 bitrate=N/A speed=17.2x    frame= 3676 fps=420 q=-0.0 size=N/A time=00:02:33.31 bitrate=N/A speed=17.5x    frame= 3959 fps=426 q=-0.0 size=N/A time=00:02:45.12 bitrate=N/A speed=17.8x    frame= 4216 fps=430 q=-0.0 size=N/A time=00:02:55.84 bitrate=N/A speed=  18x    frame= 4492 fps=436 q=-0.0 size=N/A time=00:03:07.35 bitrate=N/A speed=18.2x    frame= 4793 fps=443 q=-0.0 size=N/A time=00:03:19.90 bitrate=N/A speed=18.5x    frame= 5010 fps=442 q=-0.0 size=N/A time=00:03:28.95 bitrate=N/A speed=18.4x    frame= 5264 fps=444 q=-0.0 size=N/A time=00:03:39.55 bitrate=N/A speed=18.5x    frame= 5465 fps=441 q=-0.0 size=N/A time=00:03:47.93 bitrate=N/A speed=18.4x    frame= 5662 fps=439 q=-0.0 size=N/A time=00:03:56.15 bitrate=N/A speed=18.3x    frame= 5934 fps=442 q=-0.0 size=N/A time=00:04:07.49 bitrate=N/A speed=18.5x    frame= 6181 fps=443 q=-0.0 size=N/A time=00:04:17.79 bitrate=N/A speed=18.5x    frame= 6450 fps=446 q=-0.0 size=N/A time=00:04:29.01 bitrate=N/A speed=18.6x    frame= 6713 fps=449 q=-0.0 size=N/A time=00:04:39.98 bitrate=N/A speed=18.7x    frame= 6966 fps=450 q=-0.0 size=N/A time=00:04:50.54 bitrate=N/A speed=18.8x    frame= 7216 fps=451 q=-0.0 size=N/A time=00:05:00.96 bitrate=N/A speed=18.8x    frame= 7480 fps=453 q=-0.0 size=N/A time=00:05:11.97 bitrate=N/A speed=18.9x    frame= 7750 fps=455 q=-0.0 size=N/A time=00:05:23.23 bitrate=N/A speed=  19x    frame= 8001 fps=456 q=-0.0 size=N/A time=00:05:33.70 bitrate=N/A speed=  19x    frame= 8252 fps=457 q=-0.0 size=N/A time=00:05:44.17 bitrate=N/A speed=19.1x    frame= 8499 fps=458 q=-0.0 size=N/A time=00:05:54.47 bitrate=N/A speed=19.1x    frame= 8756 fps=459 q=-0.0 size=N/A time=00:06:05.19 bitrate=N/A speed=19.1x    frame= 8986 fps=458 q=-0.0 size=N/A time=00:06:14.79 bitrate=N/A speed=19.1x    frame= 9247 fps=460 q=-0.0 size=N/A time=00:06:25.67 bitrate=N/A speed=19.2x    frame= 9528 fps=462 q=-0.0 size=N/A time=00:06:37.39 bitrate=N/A speed=19.3x    frame= 9807 fps=464 q=-0.0 size=N/A time=00:06:49.03 bitrate=N/A speed=19.3x    frame=10064 fps=465 q=-0.0 size=N/A time=00:06:59.75 bitrate=N/A speed=19.4x    frame=10365 fps=467 q=-0.0 size=N/A time=00:07:12.30 bitrate=N/A speed=19.5x    frame=10653 fps=469 q=-0.0 size=N/A time=00:07:24.31 bitrate=N/A speed=19.6x    frame=10957 fps=472 q=-0.0 size=N/A time=00:07:37.03 bitrate=N/A speed=19.7x    frame=11223 fps=473 q=-0.0 size=N/A time=00:07:48.09 bitrate=N/A speed=19.7x    frame=11495 fps=474 q=-0.0 size=N/A time=00:07:59.43 bitrate=N/A speed=19.8x    frame=11799 fps=476 q=-0.0 size=N/A time=00:08:12.11 bitrate=N/A speed=19.9x    frame=12058 fps=477 q=-0.0 size=N/A time=00:08:22.91 bitrate=N/A speed=19.9x    frame=12354 fps=479 q=-0.0 size=N/A time=00:08:35.26 bitrate=N/A speed=  20x    frame=12645 fps=481 q=-0.0 size=N/A time=00:08:47.40 bitrate=N/A speed=  20x    frame=12945 fps=483 q=-0.0 size=N/A time=00:08:59.91 bitrate=N/A speed=20.1x    frame=13210 fps=483 q=-0.0 size=N/A time=00:09:10.96 bitrate=N/A speed=20.2x    frame=13481 fps=484 q=-0.0 size=N/A time=00:09:22.27 bitrate=N/A speed=20.2x    frame=13761 fps=485 q=-0.0 size=N/A time=00:09:33.94 bitrate=N/A speed=20.2x    frame=14050 fps=486 q=-0.0 size=N/A time=00:09:46.00 bitrate=N/A speed=20.3x    frame=14340 fps=488 q=-0.0 size=N/A time=00:09:58.09 bitrate=N/A speed=20.3x    frame=14583 fps=487 q=-0.0 size=N/A time=00:10:08.23 bitrate=N/A speed=20.3x    frame=14817 fps=487 q=-0.0 size=N/A time=00:10:17.99 bitrate=N/A speed=20.3x    frame=15083 fps=487 q=-0.0 size=N/A time=00:10:29.08 bitrate=N/A speed=20.3x    frame=15344 fps=488 q=-0.0 size=N/A time=00:10:39.97 bitrate=N/A speed=20.3x    frame=15584 fps=487 q=-0.0 size=N/A time=00:10:49.98 bitrate=N/A speed=20.3x    frame=15844 fps=487 q=-0.0 size=N/A time=00:11:00.82 bitrate=N/A speed=20.3x    frame=16127 fps=489 q=-0.0 size=N/A time=00:11:12.63 bitrate=N/A speed=20.4x    frame=16404 fps=489 q=-0.0 size=N/A time=00:11:24.18 bitrate=N/A speed=20.4x    frame=16651 fps=489 q=-0.0 size=N/A time=00:11:34.48 bitrate=N/A speed=20.4x    frame=16944 fps=490 q=-0.0 size=N/A time=00:11:46.70 bitrate=N/A speed=20.4x    frame=17220 fps=491 q=-0.0 size=N/A time=00:11:58.21 bitrate=N/A speed=20.5x    frame=17449 fps=490 q=-0.0 size=N/A time=00:12:07.76 bitrate=N/A speed=20.4x    frame=17715 fps=490 q=-0.0 size=N/A time=00:12:18.86 bitrate=N/A speed=20.5x    frame=17973 fps=491 q=-0.0 size=N/A time=00:12:29.62 bitrate=N/A speed=20.5x    frame=18199 fps=490 q=-0.0 size=N/A time=00:12:39.04 bitrate=N/A speed=20.4x    frame=18425 fps=489 q=-0.0 size=N/A time=00:12:48.47 bitrate=N/A speed=20.4x    frame=18670 fps=489 q=-0.0 size=N/A time=00:12:58.69 bitrate=N/A speed=20.4x    frame=18927 fps=489 q=-0.0 size=N/A time=00:13:09.41 bitrate=N/A speed=20.4x    frame=19159 fps=488 q=-0.0 size=N/A time=00:13:19.08 bitrate=N/A speed=20.4x    frame=19408 fps=488 q=-0.0 size=N/A time=00:13:29.47 bitrate=N/A speed=20.4x    frame=19624 fps=487 q=-0.0 size=N/A time=00:13:38.48 bitrate=N/A speed=20.3x    frame=19857 fps=487 q=-0.0 size=N/A time=00:13:48.20 bitrate=N/A speed=20.3x    frame=20137 fps=488 q=-0.0 size=N/A time=00:13:59.88 bitrate=N/A speed=20.3x    frame=20432 fps=489 q=-0.0 size=N/A time=00:14:12.18 bitrate=N/A speed=20.4x    frame=20688 fps=489 q=-0.0 size=N/A time=00:14:22.86 bitrate=N/A speed=20.4x    frame=20891 fps=488 q=-0.0 size=N/A time=00:14:31.32 bitrate=N/A speed=20.3x    frame=21064 fps=486 q=-0.0 size=N/A time=00:14:38.54 bitrate=N/A speed=20.3x    frame=21290 fps=485 q=-0.0 size=N/A time=00:14:47.97 bitrate=N/A speed=20.2x    frame=21477 fps=484 q=-0.0 size=N/A time=00:14:55.76 bitrate=N/A speed=20.2x    frame=21695 fps=483 q=-0.0 size=N/A time=00:15:04.86 bitrate=N/A speed=20.1x    frame=21940 fps=483 q=-0.0 size=N/A time=00:15:15.08 bitrate=N/A speed=20.1x    frame=22187 fps=483 q=-0.0 size=N/A time=00:15:25.38 bitrate=N/A speed=20.1x    frame=22426 fps=483 q=-0.0 size=N/A time=00:15:35.35 bitrate=N/A speed=20.1x    frame=22688 fps=483 q=-0.0 size=N/A time=00:15:46.27 bitrate=N/A speed=20.1x    frame=22946 fps=483 q=-0.0 size=N/A time=00:15:57.03 bitrate=N/A speed=20.1x    frame=23186 fps=483 q=-0.0 size=N/A time=00:16:07.04 bitrate=N/A speed=20.1x    frame=23373 fps=482 q=-0.0 size=N/A time=00:16:14.84 bitrate=N/A speed=20.1x    frame=23577 fps=481 q=-0.0 size=N/A time=00:16:23.35 bitrate=N/A speed=  20x    frame=23741 fps=479 q=-0.0 size=N/A time=00:16:30.19 bitrate=N/A speed=  20x    frame=23957 fps=479 q=-0.0 size=N/A time=00:16:39.20 bitrate=N/A speed=  20x    frame=24179 fps=478 q=-0.0 size=N/A time=00:16:48.46 bitrate=N/A speed=19.9x    frame=24427 fps=478 q=-0.0 size=N/A time=00:16:58.80 bitrate=N/A speed=19.9x    frame=24665 fps=478 q=-0.0 size=N/A time=00:17:08.73 bitrate=N/A speed=19.9x    frame=24938 fps=478 q=-0.0 size=N/A time=00:17:20.12 bitrate=N/A speed=19.9x    frame=25176 fps=478 q=-0.0 size=N/A time=00:17:30.04 bitrate=N/A speed=19.9x    frame=25412 fps=478 q=-0.0 size=N/A time=00:17:39.89 bitrate=N/A speed=19.9x    frame=25705 fps=479 q=-0.0 size=N/A time=00:17:52.11 bitrate=N/A speed=  20x    frame=25958 fps=479 q=-0.0 size=N/A time=00:18:02.66 bitrate=N/A speed=  20x    frame=26133 fps=478 q=-0.0 size=N/A time=00:18:09.96 bitrate=N/A speed=19.9x    frame=26350 fps=477 q=-0.0 size=N/A time=00:18:19.01 bitrate=N/A speed=19.9x    frame=26539 fps=476 q=-0.0 size=N/A time=00:18:26.89 bitrate=N/A speed=19.9x    frame=26782 fps=476 q=-0.0 size=N/A time=00:18:37.03 bitrate=N/A speed=19.9x    frame=26984 fps=475 q=-0.0 size=N/A time=00:18:45.45 bitrate=N/A speed=19.8x    frame=27173 fps=474 q=-0.0 size=N/A time=00:18:53.34 bitrate=N/A speed=19.8x    frame=27372 fps=473 q=-0.0 size=N/A time=00:19:01.64 bitrate=N/A speed=19.7x    frame=27517 fps=472 q=-0.0 size=N/A time=00:19:07.68 bitrate=N/A speed=19.7x    frame=27720 fps=471 q=-0.0 size=N/A time=00:19:16.15 bitrate=N/A speed=19.6x    frame=27921 fps=470 q=-0.0 size=N/A time=00:19:24.53 bitrate=N/A speed=19.6x    frame=28116 fps=470 q=-0.0 size=N/A time=00:19:32.67 bitrate=N/A speed=19.6x    frame=28343 fps=469 q=-0.0 size=N/A time=00:19:42.13 bitrate=N/A speed=19.6x    frame=28598 fps=470 q=-0.0 size=N/A time=00:19:52.77 bitrate=N/A speed=19.6x    frame=28851 fps=470 q=-0.0 size=N/A time=00:20:03.32 bitrate=N/A speed=19.6x    frame=29003 fps=468 q=-0.0 size=N/A time=00:20:09.66 bitrate=N/A speed=19.5x    frame=29188 fps=467 q=-0.0 size=N/A time=00:20:17.38 bitrate=N/A speed=19.5x    frame=29361 fps=466 q=-0.0 size=N/A time=00:20:24.59 bitrate=N/A speed=19.5x    frame=29566 fps=466 q=-0.0 size=N/A time=00:20:33.14 bitrate=N/A speed=19.4x    frame=29760 fps=465 q=-0.0 size=N/A time=00:20:41.24 bitrate=N/A speed=19.4x    frame=29974 fps=465 q=-0.0 size=N/A time=00:20:50.16 bitrate=N/A speed=19.4x    frame=30143 fps=464 q=-0.0 size=N/A time=00:20:57.21 bitrate=N/A speed=19.3x    frame=30344 fps=463 q=-0.0 size=N/A time=00:21:05.59 bitrate=N/A speed=19.3x    frame=30594 fps=463 q=-0.0 size=N/A time=00:21:16.02 bitrate=N/A speed=19.3x    frame=30822 fps=463 q=-0.0 size=N/A time=00:21:25.53 bitrate=N/A speed=19.3x    frame=30960 fps=461 q=-0.0 size=N/A time=00:21:31.29 bitrate=N/A speed=19.2x    frame=31126 fps=460 q=-0.0 size=N/A time=00:21:38.21 bitrate=N/A speed=19.2x    frame=31339 fps=460 q=-0.0 size=N/A time=00:21:47.09 bitrate=N/A speed=19.2x    frame=31586 fps=460 q=-0.0 size=N/A time=00:21:57.39 bitrate=N/A speed=19.2x    frame=31740 fps=459 q=-0.0 size=N/A time=00:22:03.82 bitrate=N/A speed=19.1x    frame=31995 fps=459 q=-0.0 size=N/A time=00:22:14.45 bitrate=N/A speed=19.2x    frame=32239 fps=459 q=-0.0 size=N/A time=00:22:24.63 bitrate=N/A speed=19.2x    frame=32487 fps=460 q=-0.0 size=N/A time=00:22:34.97 bitrate=N/A speed=19.2x    frame=32708 fps=459 q=-0.0 size=N/A time=00:22:44.19 bitrate=N/A speed=19.2x    frame=32970 fps=460 q=-0.0 size=N/A time=00:22:55.12 bitrate=N/A speed=19.2x    frame=33197 fps=459 q=-0.0 size=N/A time=00:23:04.59 bitrate=N/A speed=19.2x    frame=33415 fps=459 q=-0.0 size=N/A time=00:23:13.68 bitrate=N/A speed=19.2x    frame=33631 fps=459 q=-0.0 size=N/A time=00:23:22.69 bitrate=N/A speed=19.1x    frame=33832 fps=458 q=-0.0 size=N/A time=00:23:31.07 bitrate=N/A speed=19.1x    frame=34078 fps=459 q=-0.0 size=N/A time=00:23:41.33 bitrate=N/A speed=19.1x    frame=34309 fps=459 q=-0.0 size=N/A time=00:23:50.97 bitrate=N/A speed=19.1x    frame=34521 fps=458 q=-0.0 size=N/A time=00:23:59.81 bitrate=N/A speed=19.1x    frame=34741 fps=458 q=-0.0 size=N/A time=00:24:08.98 bitrate=N/A speed=19.1x    frame=34951 fps=458 q=-0.0 size=N/A time=00:24:17.74 bitrate=N/A speed=19.1x    [Parsed_ssim_10 @ 000001a3d0818340] SSIM Y:0.993389 (21.797414) U:0.992880 (21.475427) V:0.993928 (22.166401) All:0.993394 (21.800669)
[out#0/null @ 000001a3ce5b4200] video:15038KiB audio:273908KiB subtitle:0KiB other streams:0KiB global headers:0KiB muxing overhead: unknown
frame=34998 fps=458 q=-0.0 Lsize=N/A time=00:24:19.70 bitrate=N/A speed=19.1x    
